<svg width="1200" height="630" viewBox="0 0 1200 630" fill="none" xmlns="http://www.w3.org/2000/svg" role="img" aria-labelledby="title desc">
  <title id="title">Pushback social card</title>
  <desc id="desc">Your AI assistant agrees too much. Pushback makes it challenge weak assumptions before acting.</desc>
  <defs>
    <linearGradient id="bg" x1="0" y1="0" x2="1200" y2="630" gradientUnits="userSpaceOnUse">
      <stop offset="0" stop-color="#111817"/>
      <stop offset="0.52" stop-color="#1C261F"/>
      <stop offset="1" stop-color="#2A1820"/>
    </linearGradient>
    <linearGradient id="line" x1="118" y1="116" x2="1062" y2="514" gradientUnits="userSpaceOnUse">
      <stop offset="0" stop-color="#69E0B5"/>
      <stop offset="0.53" stop-color="#E8C547"/>
      <stop offset="1" stop-color="#E56B7F"/>
    </linearGradient>
    <filter id="shadow" x="-20%" y="-20%" width="140%" height="140%">
      <feDropShadow dx="0" dy="26" stdDeviation="28" flood-color="#050706" flood-opacity="0.42"/>
    </filter>
  </defs>
  <rect width="1200" height="630" rx="38" fill="url(#bg)"/>
  <path d="M-40 420C150 315 260 470 440 344C618 219 721 92 900 173C1032 233 1092 364 1240 294" stroke="url(#line)" stroke-width="4" opacity="0.5"/>
  <circle cx="1024" cy="120" r="128" fill="#69E0B5" opacity="0.08"/>
  <circle cx="1008" cy="515" r="168" fill="#E56B7F" opacity="0.07"/>

  <g filter="url(#shadow)">
    <rect x="92" y="82" width="1016" height="466" rx="30" fill="#F3F0E7"/>
    <rect x="92" y="82" width="1016" height="466" rx="30" stroke="#DDD6C8" stroke-width="2"/>
  </g>

  <g transform="translate(144 132)">
    <rect x="0" y="0" width="96" height="96" rx="25" fill="#131918"/>
    <path d="M26 53H64L50 67L58.5 75.5L87 47L58.5 18.5L50 27L64 41H26V53Z" fill="#69E0B5"/>
    <path d="M23 26H40V38H23V26ZM23 62H50V74H23V62Z" fill="#E8C547"/>
  </g>

  <text x="270" y="165" fill="#131918" font-family="Inter, Segoe UI, Arial, sans-serif" font-size="42" font-weight="800">Pushback</text>
  <text x="144" y="292" fill="#131918" font-family="Inter, Segoe UI, Arial, sans-serif" font-size="76" font-weight="850">Your AI assistant</text>
  <text x="144" y="378" fill="#131918" font-family="Inter, Segoe UI, Arial, sans-serif" font-size="76" font-weight="850">agrees too much.</text>
  <text x="148" y="444" fill="#425049" font-family="Inter, Segoe UI, Arial, sans-serif" font-size="30" font-weight="500">Make coding agents challenge weak assumptions before acting.</text>

  <g font-family="Inter, Segoe UI, Arial, sans-serif" font-size="20" font-weight="750">
    <rect x="148" y="484" width="140" height="44" rx="22" fill="#DDF7EC"/>
    <text x="178" y="513" fill="#17634C">VERDICT</text>
    <rect x="304" y="484" width="188" height="44" rx="22" fill="#F7EDC4"/>
    <text x="334" y="513" fill="#6D560B">ASSUMPTION</text>
    <rect x="508" y="484" width="104" height="44" rx="22" fill="#F8D8DD"/>
    <text x="542" y="513" fill="#8C2433">RISK</text>
    <rect x="628" y="484" width="172" height="44" rx="22" fill="#E4E8E1"/>
    <text x="656" y="513" fill="#3A473E">BETTER PATH</text>
  </g>
</svg>
